<svg xmlns="http://www.w3.org/2000/svg" xmlns:xlink="http://www.w3.org/1999/xlink" width="320" zoomAndPan="magnify" viewBox="0 0 240 239.999995" height="320" preserveAspectRatio="xMidYMid meet" version="1.2"><defs/><g id="1f94e44c51"><g style="fill:#d4af37;fill-opacity:1;"><g transform="translate(46.949664, 201.302701)"><path style="stroke:none" d="M 131.421875 -111.28125 L 111.5 -111.28125 C 111.0625 -121.351562 107.375 -129.195312 100.4375 -134.8125 C 93.5 -140.4375 84.1875 -143.25 72.5 -143.25 C 61.113281 -143.25 52.28125 -140.875 46 -136.125 C 39.71875 -131.382812 36.578125 -124.5625 36.578125 -115.65625 C 36.578125 -105.144531 42.785156 -98.5 55.203125 -95.71875 L 99.234375 -85.640625 C 123.617188 -80.097656 135.8125 -65.863281 135.8125 -42.9375 C 135.8125 -27.457031 130.039062 -15.738281 118.5 -7.78125 C 106.96875 0.175781 92.144531 4.15625 74.03125 4.15625 C 53.59375 4.15625 37.929688 -0.476562 27.046875 -9.75 C 16.171875 -19.019531 10.734375 -32.707031 10.734375 -50.8125 L 30.671875 -50.8125 L 30.671875 -50.375 C 30.671875 -38.988281 34.578125 -30.082031 42.390625 -23.65625 C 50.203125 -17.226562 60.75 -14.015625 74.03125 -14.015625 C 85.71875 -14.015625 95.503906 -16.09375 103.390625 -20.25 C 111.273438 -24.414062 115.21875 -31.25 115.21875 -40.75 C 115.21875 -46.875 113.863281 -51.648438 111.15625 -55.078125 C 108.457031 -58.515625 104.476562 -61.21875 99.21875 -63.1875 C 93.96875 -65.164062 85.941406 -67.394531 75.140625 -69.875 L 48.625 -76.015625 C 37.53125 -78.492188 29.316406 -82.984375 23.984375 -89.484375 C 18.648438 -95.984375 15.984375 -103.757812 15.984375 -112.8125 C 15.984375 -122.445312 18.140625 -130.914062 22.453125 -138.21875 C 26.765625 -145.519531 32.972656 -151.210938 41.078125 -155.296875 C 49.179688 -159.390625 58.851562 -161.4375 70.09375 -161.4375 C 109.664062 -161.4375 130.109375 -144.71875 131.421875 -111.28125 Z M 131.421875 -111.28125 "/></g></g></g></svg>